<?xml version="1.0" standalone="no"?>
<!DOCTYPE svg PUBLIC "-//W3C//DTD SVG 20010904//EN"
 "http://www.w3.org/TR/2001/REC-SVG-20010904/DTD/svg10.dtd">
<svg version="1.0" xmlns="http://www.w3.org/2000/svg"
 width="800.000000pt" height="800.000000pt" viewBox="0 0 800.000000 800.000000"
 preserveAspectRatio="xMidYMid meet">
<metadata>
Created by potrace 1.14, written by Peter Selinger 2001-2017
</metadata>
<g transform="translate(0.000000,800.000000) scale(0.100000,-0.100000)"
fill="#000000" stroke="none">
<path d="M3685 7159 c-16 -5 -55 -11 -85 -14 -30 -3 -68 -8 -85 -11 -16 -3
-39 -7 -50 -9 -99 -16 -349 -77 -353 -87 -2 -4 -10 -4 -18 -1 -8 3 -14 -1 -14
-8 0 -7 -3 -10 -6 -6 -4 3 -22 0 -40 -8 -19 -8 -35 -14 -37 -14 -1 0 -14 -4
-28 -10 -15 -5 -35 -11 -45 -13 -11 -2 -21 -5 -24 -8 -3 -3 -23 -13 -45 -22
-202 -82 -344 -150 -356 -170 -3 -5 -10 -10 -15 -10 -22 -1 -54 -19 -54 -29 0
-7 -3 -10 -6 -6 -4 3 -32 -10 -63 -30 -31 -20 -65 -41 -76 -47 -11 -6 -22 -14
-25 -17 -9 -10 -159 -119 -164 -119 -6 0 -30 -20 -82 -65 -12 -11 -44 -38 -69
-60 -26 -22 -88 -80 -137 -130 -50 -49 -94 -89 -99 -87 -5 1 -9 -2 -9 -7 0 -5
-17 -26 -37 -48 -39 -41 -107 -120 -133 -156 -8 -11 -25 -31 -37 -44 -13 -13
-23 -28 -23 -33 0 -6 -4 -10 -10 -10 -5 0 -10 -7 -10 -15 0 -8 -9 -20 -20 -27
-11 -7 -20 -17 -20 -22 0 -5 -17 -32 -38 -60 -21 -28 -47 -66 -57 -83 -11 -18
-23 -33 -27 -33 -4 0 -8 -6 -8 -13 0 -7 -11 -28 -25 -47 -13 -18 -22 -37 -19
-41 3 -5 1 -9 -4 -9 -4 0 -19 -21 -32 -47 -13 -27 -28 -51 -33 -54 -5 -3 -9
-10 -9 -15 0 -5 -10 -27 -21 -49 -12 -22 -22 -43 -23 -47 -1 -5 -3 -10 -4 -13
-1 -3 -3 -8 -4 -12 -1 -5 -10 -22 -19 -40 -9 -18 -17 -38 -17 -46 0 -8 -7 -20
-16 -28 -8 -7 -13 -21 -11 -30 3 -10 1 -19 -3 -21 -7 -3 -86 -224 -93 -263 -6
-30 -19 -59 -31 -67 -8 -6 -8 -8 0 -8 13 0 11 -20 -6 -80 -7 -25 -14 -54 -15
-65 -1 -11 -3 -20 -5 -20 -1 0 -3 -13 -5 -30 -2 -16 -6 -43 -10 -60 -3 -16 -8
-46 -10 -65 -2 -19 -4 -35 -5 -35 -4 0 -9 -56 -15 -145 -3 -52 -8 -122 -11
-155 -8 -89 -3 -292 8 -310 3 -6 2 -19 -2 -30 -4 -11 -3 -33 2 -50 5 -16 8
-46 6 -65 -1 -19 3 -44 9 -55 6 -11 7 -29 3 -40 -4 -11 -4 -24 0 -30 5 -5 10
-32 13 -60 2 -27 7 -57 10 -65 4 -8 9 -31 11 -50 9 -66 18 -105 27 -116 5 -6
6 -13 4 -16 -3 -3 0 -18 6 -34 7 -16 11 -33 10 -37 -3 -13 70 -236 99 -302 10
-22 21 -51 25 -65 11 -39 48 -114 59 -122 6 -4 7 -10 4 -14 -8 -7 78 -175 96
-186 6 -4 8 -8 3 -8 -4 0 2 -9 13 -20 11 -11 22 -31 26 -45 3 -14 10 -25 15
-25 5 0 9 -7 9 -15 0 -8 5 -15 12 -15 6 0 8 -3 5 -7 -4 -3 4 -21 18 -39 14
-18 25 -35 25 -38 0 -11 64 -96 72 -96 4 0 8 -8 8 -18 0 -17 35 -46 57 -47 14
0 313 291 313 305 0 6 4 9 8 6 11 -6 21 2 60 47 17 21 32 35 32 32 0 -4 12 8
27 27 16 18 33 38 39 43 14 13 26 45 16 45 -4 0 -16 15 -25 33 -10 19 -28 45
-40 58 -12 14 -23 30 -24 37 -2 6 -16 33 -33 60 -16 27 -30 54 -30 61 0 6 -5
11 -12 11 -6 0 -9 3 -5 6 3 3 -7 29 -21 57 -14 29 -25 55 -24 60 1 4 -3 7 -8
7 -5 0 -9 3 -8 8 3 12 -25 81 -32 77 -3 -2 -7 8 -8 23 -1 14 -8 29 -15 34 -6
4 -9 8 -5 8 3 0 -5 33 -19 73 -14 39 -26 77 -27 82 -2 6 -8 29 -14 51 -7 23
-16 62 -21 85 -5 24 -12 55 -15 69 -3 14 -8 41 -11 60 -3 19 -7 46 -11 60 -3
14 -5 40 -5 58 0 18 -3 30 -8 27 -5 -2 -6 10 -2 28 7 35 3 77 -7 77 -12 0 -2
413 12 490 3 14 10 59 17 100 7 41 16 79 20 84 4 5 5 15 2 22 -3 8 -2 22 3 32
4 9 9 26 10 37 3 22 8 43 17 65 3 8 16 49 28 90 11 41 27 86 34 100 7 14 15
34 17 45 1 11 9 26 16 33 7 8 10 17 7 22 -3 5 0 10 5 12 6 2 12 13 13 26 0 12
5 22 10 22 4 0 6 4 3 9 -4 5 -2 11 3 13 5 1 11 10 13 18 2 8 6 17 10 20 3 3 8
12 10 20 2 8 9 21 16 28 7 8 10 17 7 22 -3 5 -2 10 2 12 5 1 21 28 37 58 34
62 148 234 177 266 10 11 19 24 19 28 0 4 11 19 25 34 14 15 62 70 108 122 95
110 117 132 117 123 0 -3 23 17 51 46 29 28 54 49 56 47 3 -3 18 11 35 30 17
19 34 34 39 34 9 0 34 20 87 67 13 12 33 25 43 28 11 4 19 11 19 16 0 5 9 9
21 9 11 0 18 4 15 8 -3 4 15 19 40 32 24 14 44 28 44 33 0 4 4 6 9 2 5 -3 15
1 23 8 22 22 199 108 209 102 5 -4 9 -1 9 5 0 12 41 31 80 37 13 2 31 9 38 16
8 6 21 12 29 13 8 1 22 6 31 10 25 11 24 11 60 19 18 4 35 12 38 16 3 5 9 7
14 4 5 -3 18 -1 28 4 11 6 32 13 48 16 39 8 59 13 59 15 0 2 36 10 75 15 19 3
37 9 40 13 3 4 25 8 49 9 24 1 51 5 60 8 65 27 579 26 701 0 14 -3 41 -8 60
-11 19 -3 53 -9 74 -15 22 -6 49 -12 60 -14 12 -1 28 -5 36 -9 8 -3 24 -7 35
-9 11 -1 25 -5 30 -9 8 -5 65 -20 85 -23 6 0 68 -24 95 -36 11 -5 27 -10 35
-11 8 -2 17 -5 20 -8 7 -7 73 -32 88 -33 6 0 12 -3 12 -7 0 -3 16 -12 35 -20
19 -8 35 -18 35 -24 0 -5 3 -7 6 -4 5 5 61 -22 159 -76 29 -16 71 -44 148 -98
37 -27 67 -45 67 -42 0 3 11 -6 24 -20 13 -15 27 -26 32 -26 4 0 17 -9 29 -19
51 -49 152 -139 161 -142 5 -2 26 -24 46 -49 21 -25 69 -79 108 -120 38 -41
70 -81 70 -87 0 -7 4 -13 9 -13 10 0 71 -84 101 -138 8 -15 21 -31 28 -35 6
-4 12 -15 12 -22 0 -8 4 -15 10 -15 5 0 12 -11 16 -25 3 -14 9 -25 13 -25 4 0
13 -16 21 -35 8 -19 17 -35 22 -35 4 0 8 -8 8 -19 0 -10 6 -24 14 -30 8 -7 18
-26 21 -42 4 -16 11 -29 16 -29 5 0 9 -9 9 -19 0 -11 7 -27 16 -35 8 -9 12
-16 8 -16 -3 0 0 -7 7 -17 8 -9 13 -18 11 -20 -5 -5 21 -73 28 -73 3 0 7 -12
8 -27 1 -15 8 -30 15 -35 6 -4 8 -8 3 -8 -5 0 -3 -6 3 -13 6 -8 8 -17 4 -20
-3 -4 0 -13 7 -22 7 -8 9 -15 4 -15 -4 0 -3 -5 3 -11 6 -6 9 -18 6 -27 -4 -10
-2 -13 5 -8 8 5 12 -3 12 -23 0 -17 5 -31 11 -31 5 0 8 -4 5 -8 -3 -5 1 -33 9
-63 8 -30 16 -66 20 -81 3 -16 7 -38 10 -50 12 -57 26 -167 27 -208 0 -25 3
-49 6 -54 7 -13 10 -76 2 -71 -6 4 -5 -9 4 -87 2 -21 1 -36 -2 -34 -9 5 -7
-47 2 -62 4 -7 5 -16 2 -20 -3 -5 -8 -40 -11 -78 -11 -129 -27 -249 -36 -266
-7 -12 -6 -18 1 -18 6 0 8 -5 4 -11 -3 -6 -15 -43 -26 -83 -10 -39 -21 -80
-24 -91 -4 -11 -7 -28 -7 -37 -1 -10 -4 -18 -8 -18 -7 0 -23 -56 -22 -77 0 -7
-3 -13 -8 -13 -5 0 -8 -3 -8 -7 1 -5 -4 -24 -12 -43 -7 -19 -12 -38 -11 -42 1
-5 -3 -8 -8 -8 -6 0 -10 -6 -10 -14 0 -8 -13 -44 -30 -79 -16 -36 -30 -69 -30
-73 0 -4 -7 -12 -15 -18 -8 -6 -16 -20 -18 -31 -1 -11 -10 -31 -18 -45 -37
-59 -79 -131 -79 -135 0 -3 -11 -18 -24 -33 -14 -15 -25 -31 -26 -37 -1 -5 -8
-14 -16 -18 -8 -4 -14 -12 -14 -18 0 -15 -57 -89 -64 -82 -3 3 -6 -1 -6 -10 0
-9 -19 -37 -42 -62 -24 -26 -43 -52 -43 -59 -1 -6 -6 -10 -13 -9 -7 2 -12 -1
-12 -6 0 -6 -44 -52 -97 -103 -53 -51 -117 -113 -142 -138 -25 -24 -41 -38
-37 -30 4 8 1 7 -7 -2 -8 -10 -19 -18 -25 -18 -6 0 -15 -6 -19 -13 -4 -8 -27
-26 -50 -42 -24 -15 -43 -32 -43 -36 0 -5 -3 -8 -7 -7 -9 3 -104 -60 -115 -76
-4 -6 -8 -7 -8 -2 0 5 -8 2 -18 -7 -10 -10 -22 -14 -25 -10 -4 3 -7 1 -7 -5 0
-6 -21 -21 -47 -33 -27 -12 -60 -30 -75 -40 -14 -11 -33 -19 -42 -19 -9 0 -16
-4 -16 -10 0 -5 -6 -10 -13 -10 -8 0 -27 -6 -43 -14 -29 -14 -93 -42 -129 -56
-11 -4 -56 -20 -100 -35 -44 -14 -87 -29 -95 -32 -8 -3 -22 -7 -30 -8 -30 -4
-85 -17 -95 -23 -5 -3 -28 -7 -50 -9 -22 -2 -47 -7 -55 -10 -8 -3 -23 -7 -32
-8 -10 -2 -19 -3 -20 -4 -5 -3 -90 -11 -130 -12 -21 -1 -38 -4 -38 -8 0 -3
-87 -5 -192 -3 -263 4 -298 6 -298 14 0 4 -22 7 -50 7 -27 -1 -50 -6 -50 -10
0 -5 -7 -9 -15 -9 -8 0 -15 -4 -15 -8 0 -4 -12 -15 -27 -24 -16 -9 -39 -28
-53 -41 -14 -13 -50 -45 -80 -71 -30 -26 -73 -64 -95 -85 -23 -20 -63 -54 -89
-76 -27 -22 -64 -55 -82 -72 -19 -18 -37 -33 -41 -33 -3 0 -15 -11 -27 -23
-12 -13 -29 -28 -37 -33 -9 -5 -28 -27 -42 -49 l-27 -40 23 -8 c35 -14 154
-47 247 -68 47 -11 103 -25 125 -30 42 -10 114 -20 153 -22 12 -1 22 -4 22 -7
0 -5 44 -9 143 -13 20 -1 37 -5 37 -8 0 -3 37 -6 83 -7 45 0 126 -3 179 -5 54
-3 96 -2 94 2 -3 4 36 6 85 5 49 -1 87 1 85 5 -4 5 24 8 146 12 16 1 25 6 22
11 -4 6 2 6 13 -1 11 -6 23 -7 27 -4 7 7 17 9 75 18 18 2 41 7 50 9 18 6 69
17 91 20 9 1 21 5 28 10 6 4 16 5 21 1 5 -3 12 -1 16 5 3 5 17 10 31 10 13 0
24 5 24 11 0 5 5 7 11 4 6 -4 30 0 55 10 24 9 48 14 54 10 5 -3 10 -1 10 4 0
6 7 11 16 11 9 0 30 6 47 14 18 8 51 20 75 26 23 6 40 15 37 21 -4 5 -3 8 2 7
15 -4 103 26 103 36 0 5 3 6 7 3 3 -4 17 0 30 8 13 9 23 13 23 10 0 -3 10 0
23 7 12 7 25 11 30 10 4 -1 7 3 7 8 0 6 6 10 13 10 11 0 116 49 127 60 8 8 80
48 128 71 23 12 42 25 42 30 0 5 5 9 12 9 6 0 25 10 42 23 17 12 43 29 59 36
15 8 27 18 27 23 0 4 7 8 15 8 8 0 15 5 15 10 0 6 11 15 25 20 14 5 25 15 25
21 0 7 3 9 7 6 3 -4 16 5 29 18 13 14 26 25 29 25 6 0 31 20 89 75 25 23 46
40 46 37 0 -3 54 48 120 114 66 65 125 124 130 129 29 27 98 109 158 185 37
47 71 90 77 97 5 7 16 19 23 28 7 8 10 15 7 15 -3 0 3 10 15 22 11 12 20 28
20 35 0 7 5 13 10 13 6 0 14 8 17 18 4 9 13 23 20 30 7 8 11 18 7 23 -3 5 0 8
8 7 7 -2 12 5 12 15 -1 9 3 17 10 17 6 1 20 20 32 43 51 104 127 243 136 248
5 3 8 8 7 10 -7 10 21 69 32 69 7 0 10 3 6 6 -8 9 14 67 32 81 10 8 12 12 4
13 -13 0 -6 31 9 41 5 3 11 15 13 25 2 10 4 20 5 22 2 1 3 5 5 10 1 4 4 14 8
22 12 31 66 206 72 235 7 30 13 63 14 78 1 5 4 6 9 4 4 -3 7 13 6 35 0 22 4
45 10 51 6 7 11 23 12 37 1 33 11 103 24 169 5 29 8 57 5 61 -3 5 -1 11 4 15
7 3 7 15 1 30 -5 13 -5 27 -1 30 12 7 20 65 9 65 -5 0 -4 9 2 19 6 13 6 21 0
23 -6 2 -4 14 4 29 8 15 10 32 5 40 -4 7 -5 17 -2 22 7 12 8 106 0 113 -3 3
-1 19 3 35 5 16 5 31 0 34 -5 3 -6 15 -1 28 6 14 5 30 -1 41 -5 10 -8 35 -6
57 2 21 0 39 -5 39 -4 0 -3 9 3 20 7 12 7 20 1 20 -5 0 -10 8 -9 18 1 43 -14
148 -21 155 -5 5 -5 22 -1 38 5 16 5 27 1 24 -10 -6 -24 72 -16 86 4 5 1 9 -4
9 -6 0 -11 13 -11 28 0 16 -3 32 -6 35 -4 4 -8 21 -9 38 -2 17 -7 34 -11 38
-5 3 -10 22 -12 41 -1 19 -7 37 -12 38 -6 2 -8 7 -5 12 3 5 1 20 -5 35 -5 14
-12 40 -15 58 -4 17 -11 34 -16 38 -6 3 -9 10 -8 15 1 5 0 12 -1 17 -1 4 -3
10 -4 15 -12 44 -29 99 -34 107 -4 6 -7 15 -8 20 -1 6 -12 33 -25 60 -13 28
-22 53 -21 58 1 4 -2 7 -7 7 -5 0 -12 14 -16 30 -4 17 -11 30 -16 30 -6 0 -8
4 -4 9 3 5 0 15 -7 23 -7 7 -14 20 -16 28 -2 8 -8 17 -13 18 -5 2 -9 12 -9 23
0 10 -4 19 -10 19 -5 0 -10 7 -10 15 0 8 -5 15 -10 15 -6 0 -9 3 -8 8 5 17
-14 52 -25 46 -7 -4 -9 -4 -5 1 9 10 -19 65 -33 65 -6 0 -7 5 -4 10 3 6 1 10
-6 10 -7 0 -9 3 -6 7 4 3 1 13 -7 22 -7 9 -41 57 -74 106 -34 50 -75 106 -91
125 -17 19 -31 41 -31 48 0 7 -4 10 -10 7 -5 -3 -10 -1 -10 4 0 37 -431 481
-467 481 -7 0 -13 4 -13 9 0 10 -143 121 -156 121 -5 0 -15 9 -22 20 -7 11
-18 20 -25 20 -7 0 -24 11 -39 24 -14 14 -28 23 -30 20 -3 -2 -13 5 -23 16
-10 11 -24 20 -32 20 -7 0 -13 3 -13 8 0 4 -10 12 -23 18 -12 6 -43 23 -69 38
-27 14 -48 24 -48 21 0 -2 -8 2 -17 10 -10 8 -22 15 -27 14 -5 0 -12 3 -15 8
-3 5 -42 27 -86 48 -44 22 -82 43 -83 47 -2 5 -7 6 -12 3 -4 -2 -48 13 -98 34
-50 21 -93 36 -96 33 -3 -3 -6 0 -6 7 0 7 -4 9 -10 6 -5 -3 -10 -1 -10 5 0 7
-6 10 -14 7 -7 -3 -17 -2 -22 3 -5 5 -20 11 -34 14 -51 10 -65 15 -150 44 -8
3 -22 7 -30 8 -8 1 -25 5 -37 8 -13 3 -32 8 -43 10 -11 3 -24 7 -28 10 -6 4
-43 11 -112 21 -8 1 -22 5 -30 8 -8 3 -22 5 -30 5 -8 0 -35 3 -60 7 -25 4 -65
8 -90 10 -25 2 -52 5 -60 8 -34 11 -60 15 -64 8 -5 -8 -48 -7 -63 2 -12 8
-394 2 -441 -6 -20 -4 -30 -2 -27 3 4 6 5 10 3 9 -2 0 -16 -5 -33 -10z"/>
<path d="M3777 5957 c-2 -6 -16 -11 -31 -9 -15 1 -46 -3 -69 -8 -60 -15 -98
-22 -129 -23 -16 -1 -28 -5 -28 -8 0 -4 -17 -10 -37 -14 -20 -3 -55 -15 -77
-25 -23 -10 -65 -28 -93 -41 -29 -12 -53 -27 -53 -31 0 -5 -4 -7 -10 -3 -5 3
-18 -2 -28 -12 -10 -10 -25 -19 -33 -21 -8 -2 -21 -10 -30 -18 -8 -8 -21 -14
-27 -14 -7 0 -12 -4 -12 -8 0 -4 -35 -37 -77 -72 -43 -36 -82 -71 -87 -78 -4
-8 -16 -22 -26 -32 -9 -9 -26 -32 -36 -51 -11 -19 -22 -36 -25 -39 -16 -12
-70 -131 -64 -140 3 -5 1 -10 -4 -10 -6 0 -11 -11 -11 -24 l0 -25 623 -4 c342
-2 640 -7 662 -11 65 -11 139 -28 150 -35 11 -6 32 -12 53 -13 6 -1 12 -5 12
-9 0 -4 16 -13 36 -19 68 -23 164 -85 244 -158 44 -40 80 -80 80 -88 0 -8 4
-14 9 -14 11 0 91 -136 91 -155 0 -7 7 -18 15 -25 8 -7 13 -15 10 -19 -2 -4 2
-19 10 -34 7 -14 11 -28 8 -31 -3 -2 -1 -11 3 -18 5 -7 9 -17 10 -23 1 -5 5
-25 9 -44 3 -19 8 -38 11 -43 3 -4 0 -8 -7 -8 -10 0 -10 -3 -1 -12 15 -15 15
-102 1 -188 -6 -36 -12 -71 -12 -77 0 -7 -5 -13 -10 -13 -6 0 -8 -3 -5 -6 4
-3 0 -20 -7 -39 -8 -18 -11 -35 -8 -39 4 -3 2 -6 -4 -6 -6 0 -14 -12 -18 -27
-3 -15 -11 -31 -16 -34 -6 -3 -11 -12 -12 -20 -2 -8 -15 -31 -30 -50 -15 -20
-27 -41 -27 -48 0 -7 -4 -9 -10 -6 -5 3 -10 1 -10 -6 0 -14 -55 -67 -115 -110
-25 -18 -45 -36 -45 -41 0 -4 -6 -8 -14 -8 -8 0 -27 -7 -43 -15 -34 -18 -108
-47 -109 -43 0 2 -8 -3 -17 -11 -10 -7 -17 -11 -17 -8 0 3 -15 1 -32 -4 -63
-19 -95 -21 -410 -22 -194 -1 -314 -5 -311 -11 4 -5 1 -6 -8 0 -8 5 -36 10
-64 10 -73 2 -72 2 -80 27 -13 40 -13 47 -4 47 4 0 5 8 2 17 -4 9 -6 69 -5
132 1 64 2 123 2 131 0 8 -1 170 -1 360 -1 216 -5 350 -11 358 -13 15 -704 17
-728 2 -13 -8 -15 -184 -15 -1485 0 -1223 2 -1478 13 -1488 8 -6 16 -7 20 -1
4 5 19 15 34 23 15 8 37 23 48 33 11 10 20 17 20 14 0 -2 14 8 31 24 48 43 69
60 74 60 3 0 13 8 24 17 10 10 33 29 50 43 18 14 42 33 53 42 12 10 25 18 30
18 5 0 7 4 3 9 -3 5 5 13 17 16 13 4 35 21 51 37 15 16 27 26 27 22 0 -4 7 1
15 12 8 10 15 15 15 11 0 -5 15 8 34 27 18 20 37 36 42 36 4 0 17 9 29 19 11
10 37 35 58 55 22 20 43 36 49 36 5 0 6 4 3 10 -3 6 -2 10 3 10 6 0 9 88 8
220 0 121 3 220 7 220 4 0 4 8 -1 18 -9 19 -8 99 1 108 4 4 2 15 -4 25 -12 22
-26 21 173 21 104 1 145 4 141 12 -5 8 -2 7 8 0 14 -12 484 -12 579 0 25 3 60
6 78 7 17 0 32 4 32 9 0 4 10 8 23 8 12 1 29 3 37 5 8 2 32 7 53 12 20 4 37
10 37 14 0 4 12 8 26 9 15 1 33 7 40 13 7 6 18 8 24 4 5 -3 10 -1 10 4 0 6 9
11 20 11 11 0 20 5 20 10 0 6 3 9 8 8 13 -3 56 14 75 30 9 8 17 12 17 8 0 -3
14 0 30 9 17 9 30 20 30 26 0 6 4 8 9 5 5 -3 28 8 52 24 24 16 48 30 52 30 4
0 18 11 31 25 13 14 27 25 32 25 5 0 24 13 42 30 18 16 38 30 43 30 6 0 8 3 6
8 -3 4 13 21 34 37 21 17 38 32 39 35 0 3 23 30 50 60 28 30 50 60 50 66 0 7
9 16 20 19 11 4 18 10 15 14 -2 4 9 26 25 48 16 22 27 43 23 47 -3 3 -1 6 6 6
7 0 17 14 22 30 6 17 16 30 22 30 6 0 7 3 4 7 -4 3 0 17 8 30 9 13 13 23 10
23 -4 0 3 13 15 30 12 16 18 34 15 40 -3 5 -2 10 3 10 8 0 10 6 14 49 1 11 5
18 8 16 10 -6 62 210 69 284 14 162 3 449 -21 494 -5 9 -7 17 -4 17 3 0 0 15
-5 33 -6 17 -12 43 -14 57 -10 65 -91 270 -107 270 -4 0 -5 7 -2 15 4 8 1 15
-6 15 -6 0 -9 4 -6 9 4 5 3 11 -2 13 -4 1 -23 30 -41 63 -18 33 -44 71 -56 85
-13 14 -25 31 -27 39 -3 12 -189 214 -228 247 -64 55 -160 125 -208 153 -31
19 -69 42 -84 52 -15 11 -34 19 -43 19 -8 0 -15 5 -15 10 0 6 -5 10 -12 10 -6
0 -30 8 -52 19 -42 19 -129 53 -133 52 -3 -1 -30 8 -64 20 -14 6 -30 9 -35 8
-5 -1 -12 0 -16 1 -25 8 -73 20 -103 25 -56 10 -140 19 -192 19 -29 1 -53 5
-53 9 0 4 -9 3 -20 -3 -12 -6 -20 -7 -20 -1 0 6 -11 6 -29 1 -15 -4 -34 -4
-42 0 -7 5 -17 6 -23 3 -13 -9 -57 -9 -88 -2 -17 5 -28 3 -31 -4z"/>
</g>
</svg>
